<svg xmlns="http://www.w3.org/2000/svg" width="805" height="600"><rect width="805" height="600" x="0" y="0" fill="#FFFFFF" id="background"/><g id="viz"><g transform="translate(0,0)"><g transform="translate(10,20)"><g><path fill="#d62728" d="M0,541.64C49.0625,541.64,49.0625,560,98.125,560C147.1875,560,147.1875,477.00000000000006,196.25,477.00000000000006C245.3125,477.00000000000006,245.3125,508.15999999999997,294.375,508.15999999999997C343.4375,508.15999999999997,343.4375,315.68,392.5,315.68C441.5625,315.68,441.5625,444.88,490.625,444.88C539.6875,444.88,539.6875,378.15999999999997,588.75,378.15999999999997C637.8125,378.15999999999997,637.8125,549.96,686.875,549.96C735.9375,549.96,735.9375,547.68,785,547.68L785,560C735.9375,560,735.9375,557,686.875,557C637.8125,557,637.8125,430.16,588.75,430.16C539.6875,430.16,539.6875,501.52,490.625,501.52C441.5625,501.52,441.5625,428.47999999999996,392.5,428.47999999999996C343.4375,428.47999999999996,343.4375,534.08,294.375,534.08C245.3125,534.08,245.3125,551.5600000000001,196.25,551.5600000000001C147.1875,551.5600000000001,147.1875,560,98.125,560C49.0625,560,49.0625,549.96,0,549.96Z"><title>Fantasy</title></path><path fill="#2ca02c" d="M0,560C49.0625,560,49.0625,559,98.125,559C147.1875,559,147.1875,560,196.25,560C245.3125,560,245.3125,560,294.375,560C343.4375,560,343.4375,549.6,392.5,549.6C441.5625,549.6,441.5625,560,490.625,560C539.6875,560,539.6875,462.56,588.75,462.56C637.8125,462.56,637.8125,484.76,686.875,484.76C735.9375,484.76,735.9375,452.8,785,452.8L785,482.08C735.9375,482.08,735.9375,526.04,686.875,526.04C637.8125,526.04,637.8125,489.12,588.75,489.12C539.6875,489.12,539.6875,560,490.625,560C441.5625,560,441.5625,560,392.5,560C343.4375,560,343.4375,560,294.375,560C245.3125,560,245.3125,560,196.25,560C147.1875,560,147.1875,559,98.125,559C49.0625,559,49.0625,560,0,560Z"><title>Drama</title></path><path fill="#8c564b" d="M0,560C49.0625,560,49.0625,559,98.125,559C147.1875,559,147.1875,552.5600000000001,196.25,552.5600000000001C245.3125,552.5600000000001,245.3125,559,294.375,559C343.4375,559,343.4375,560,392.5,560C441.5625,560,441.5625,559,490.625,559C539.6875,559,539.6875,560,588.75,560C637.8125,560,637.8125,560,686.875,560C735.9375,560,735.9375,560,785,560L785,560C735.9375,560,735.9375,560,686.875,560C637.8125,560,637.8125,560,588.75,560C539.6875,560,539.6875,559,490.625,559C441.5625,559,441.5625,560,392.5,560C343.4375,560,343.4375,559,294.375,559C245.3125,559,245.3125,558,196.25,558C147.1875,558,147.1875,559,98.125,559C49.0625,559,49.0625,560,0,560Z"><title>Horror</title></path><path fill="#bcbd22" d="M0,560C49.0625,560,49.0625,558,98.125,558C147.1875,558,147.1875,560,196.25,560C245.3125,560,245.3125,333.48,294.375,333.48C343.4375,333.48,343.4375,560,392.5,560C441.5625,560,441.5625,559,490.625,559C539.6875,559,539.6875,431.16,588.75,431.16C637.8125,431.16,637.8125,560,686.875,560C735.9375,560,735.9375,560,785,560L785,560C735.9375,560,735.9375,560,686.875,560C637.8125,560,637.8125,461.56,588.75,461.56C539.6875,461.56,539.6875,559,490.625,559C441.5625,559,441.5625,560,392.5,560C343.4375,560,343.4375,395.88,294.375,395.88C245.3125,395.88,245.3125,560,196.25,560C147.1875,560,147.1875,558,98.125,558C49.0625,558,49.0625,560,0,560Z"><title>Sci-fi</title></path><path fill="#ff7f0e" d="M0,489.24C49.0625,489.24,49.0625,558,98.125,558C147.1875,558,147.1875,354.40000000000003,196.25,354.40000000000003C245.3125,354.40000000000003,245.3125,559,294.375,559C343.4375,559,343.4375,560,392.5,560C441.5625,560,441.5625,558,490.625,558C539.6875,558,539.6875,490.12,588.75,490.12C637.8125,490.12,637.8125,527.04,686.875,527.04C735.9375,527.04,735.9375,361.2,785,361.2L785,411.6C735.9375,411.6,735.9375,548.96,686.875,548.96C637.8125,548.96,637.8125,510.28,588.75,510.28C539.6875,510.28,539.6875,558,490.625,558C441.5625,558,441.5625,560,392.5,560C343.4375,560,343.4375,559,294.375,559C245.3125,559,245.3125,476.00000000000006,196.25,476.00000000000006C147.1875,476.00000000000006,147.1875,558,98.125,558C49.0625,558,49.0625,525.08,0,525.08Z"><title>Comedy</title></path><path fill="#7f7f7f" d="M0,550.96C49.0625,550.96,49.0625,536.36,98.125,536.36C147.1875,536.36,147.1875,206.36,196.25,206.36C245.3125,206.36,245.3125,453.24,294.375,453.24C343.4375,453.24,343.4375,109.23999999999998,392.5,109.23999999999998C441.5625,109.23999999999998,441.5625,355.88,490.625,355.88C539.6875,355.88,539.6875,511.28,588.75,511.28C637.8125,511.28,637.8125,439.28000000000003,686.875,439.28000000000003C735.9375,439.28000000000003,735.9375,230.92,785,230.92L785,360.2C735.9375,360.2,735.9375,483.76,686.875,483.76C637.8125,483.76,637.8125,529.52,588.75,529.52C539.6875,529.52,539.6875,443.88,490.625,443.88C441.5625,443.88,441.5625,314.68,392.5,314.68C343.4375,314.68,343.4375,507.15999999999997,294.375,507.15999999999997C245.3125,507.15999999999997,245.3125,353.40000000000003,196.25,353.40000000000003C147.1875,353.40000000000003,147.1875,557,98.125,557C49.0625,557,49.0625,558,0,558Z"><title>Romance</title></path><path fill="#cccccc" d="M0,560C49.0625,560,49.0625,557,98.125,557C147.1875,557,147.1875,559,196.25,559C245.3125,559,245.3125,559,294.375,559C343.4375,559,343.4375,534.04,392.5,534.04C441.5625,534.04,441.5625,502.52,490.625,502.52C539.6875,502.52,539.6875,560,588.75,560C637.8125,560,637.8125,560,686.875,560C735.9375,560,735.9375,510.15999999999997,785,510.15999999999997L785,530.16C735.9375,530.16,735.9375,560,686.875,560C637.8125,560,637.8125,560,588.75,560C539.6875,560,539.6875,533.08,490.625,533.08C441.5625,533.08,441.5625,548.6,392.5,548.6C343.4375,548.6,343.4375,559,294.375,559C245.3125,559,245.3125,559,196.25,559C147.1875,559,147.1875,557,98.125,557C49.0625,557,49.0625,560,0,560Z"><title>Supernatural</title></path><path fill="#17becf" d="M0,560C49.0625,560,49.0625,277.24,98.125,277.24C147.1875,277.24,147.1875,0.720000000000006,196.25,0.720000000000006C245.3125,0.720000000000006,245.3125,535.08,294.375,535.08C343.4375,535.08,343.4375,429.47999999999996,392.5,429.47999999999996C441.5625,429.47999999999996,441.5625,534.08,490.625,534.08C539.6875,534.08,539.6875,530.52,588.75,530.52C637.8125,530.52,637.8125,283.71999999999997,686.875,283.71999999999997C735.9375,283.71999999999997,735.9375,531.16,785,531.16L785,546.68C735.9375,546.68,735.9375,438.28000000000003,686.875,438.28000000000003C637.8125,438.28000000000003,637.8125,546.52,588.75,546.52C539.6875,546.52,539.6875,556,490.625,556C441.5625,556,441.5625,516.6800000000001,392.5,516.6800000000001C343.4375,516.6800000000001,343.4375,557,294.375,557C245.3125,557,245.3125,205.36,196.25,205.36C147.1875,205.36,147.1875,508.43999999999994,98.125,508.43999999999994C49.0625,508.43999999999994,49.0625,560,0,560Z"><title>Slice of life</title></path><path fill="#1f77b4" d="M0,559C49.0625,559,49.0625,509.43999999999994,98.125,509.43999999999994C147.1875,509.43999999999994,147.1875,559,196.25,559C245.3125,559,245.3125,558,294.375,558C343.4375,558,343.4375,560,392.5,560C441.5625,560,441.5625,557,490.625,557C539.6875,557,539.6875,547.52,588.75,547.52C637.8125,547.52,637.8125,559,686.875,559C735.9375,559,735.9375,560,785,560L785,560C735.9375,560,735.9375,559,686.875,559C637.8125,559,637.8125,560,588.75,560C539.6875,560,539.6875,557,490.625,557C441.5625,557,441.5625,560,392.5,560C343.4375,560,343.4375,558,294.375,558C245.3125,558,245.3125,559,196.25,559C147.1875,559,147.1875,535.36,98.125,535.36C49.0625,535.36,49.0625,559,0,559Z"><title>Action</title></path><path fill="#9467bd" d="M0,526.08C49.0625,526.08,49.0625,557,98.125,557C147.1875,557,147.1875,559,196.25,559C245.3125,559,245.3125,558,294.375,558C343.4375,558,343.4375,517.6800000000001,392.5,517.6800000000001C441.5625,517.6800000000001,441.5625,556,490.625,556C539.6875,556,539.6875,560,588.75,560C637.8125,560,637.8125,559,686.875,559C735.9375,559,735.9375,412.6,785,412.6L785,451.8C735.9375,451.8,735.9375,559,686.875,559C637.8125,559,637.8125,560,588.75,560C539.6875,560,539.6875,556,490.625,556C441.5625,556,441.5625,533.04,392.5,533.04C343.4375,533.04,343.4375,558,294.375,558C245.3125,558,245.3125,559,196.25,559C147.1875,559,147.1875,557,98.125,557C49.0625,557,49.0625,540.64,0,540.64Z"><title>Heart-warming</title></path><path fill="#e377c2" d="M0,558C49.0625,558,49.0625,557,98.125,557C147.1875,557,147.1875,559,196.25,559C245.3125,559,245.3125,557,294.375,557C343.4375,557,343.4375,560,392.5,560C441.5625,560,441.5625,556,490.625,556C539.6875,556,539.6875,560,588.75,560C637.8125,560,637.8125,558,686.875,558C735.9375,558,735.9375,483.08,785,483.08L785,509.15999999999997C735.9375,509.15999999999997,735.9375,558,686.875,558C637.8125,558,637.8125,560,588.75,560C539.6875,560,539.6875,556,490.625,556C441.5625,556,441.5625,560,392.5,560C343.4375,560,343.4375,557,294.375,557C245.3125,557,245.3125,559,196.25,559C147.1875,559,147.1875,557,98.125,557C49.0625,557,49.0625,558,0,558Z"><title>Mystery</title></path><path fill="#cccccc" d="M0,558C49.0625,558,49.0625,557,98.125,557C147.1875,557,147.1875,559,196.25,559C245.3125,559,245.3125,396.88,294.375,396.88C343.4375,396.88,343.4375,560,392.5,560C441.5625,560,441.5625,556,490.625,556C539.6875,556,539.6875,560,588.75,560C637.8125,560,637.8125,557,686.875,557C735.9375,557,735.9375,560,785,560L785,560C735.9375,560,735.9375,557,686.875,557C637.8125,557,637.8125,560,588.75,560C539.6875,560,539.6875,556,490.625,556C441.5625,556,441.5625,560,392.5,560C343.4375,560,343.4375,452.24,294.375,452.24C245.3125,452.24,245.3125,559,196.25,559C147.1875,559,147.1875,557,98.125,557C49.0625,557,49.0625,558,0,558Z"><title>Superhero</title></path></g><g id="xAxis" transform="translate(0,560)" fill="none" font-size="10" font-family="sans-serif" text-anchor="middle"><path class="domain" stroke="currentColor" d="M0,0H785"/><g class="tick" opacity="1" transform="translate(0,0)"><line stroke="currentColor" y2="6"/><text fill="currentColor" y="9" dy="0.71em">6.0</text></g><g class="tick" opacity="1" transform="translate(98.125,0)"><line stroke="currentColor" y2="6"/><text fill="currentColor" y="9" dy="0.71em">6.5</text></g><g class="tick" opacity="1" transform="translate(196.25,0)"><line stroke="currentColor" y2="6"/><text fill="currentColor" y="9" dy="0.71em">7.0</text></g><g class="tick" opacity="1" transform="translate(294.375,0)"><line stroke="currentColor" y2="6"/><text fill="currentColor" y="9" dy="0.71em">7.5</text></g><g class="tick" opacity="1" transform="translate(392.5,0)"><line stroke="currentColor" y2="6"/><text fill="currentColor" y="9" dy="0.71em">8.0</text></g><g class="tick" opacity="1" transform="translate(490.625,0)"><line stroke="currentColor" y2="6"/><text fill="currentColor" y="9" dy="0.71em">8.5</text></g><g class="tick" opacity="1" transform="translate(588.75,0)"><line stroke="currentColor" y2="6"/><text fill="currentColor" y="9" dy="0.71em">9.0</text></g><g class="tick" opacity="1" transform="translate(686.875,0)"><line stroke="currentColor" y2="6"/><text fill="currentColor" y="9" dy="0.71em">9.5</text></g><g class="tick" opacity="1" transform="translate(785,0)"><line stroke="currentColor" y2="6"/><text fill="currentColor" y="9" dy="0.71em">10.0</text></g></g><text style="font-family: Arial, sans-serif; font-size: 12px; fill: rgb(123, 123, 123); font-weight: bold;" y="556" x="785" text-anchor="end">PersonalRate</text><text style="font-family: Arial, sans-serif; font-size: 12px; fill: rgb(123, 123, 123); font-weight: bold;" x="4" text-anchor="start" dominant-baseline="hanging">NumEpisodes</text><g id="labels"><text x="392.5" y="372.08000000000004" text-anchor="middle" alignment-baseline="middle" style="font-family: Arial, sans-serif; font-size: 10px; fill: black; font-weight: bold;">Fantasy</text><text x="686.875" y="505.40000000000003" text-anchor="middle" alignment-baseline="middle" style="font-family: Arial, sans-serif; font-size: 10px; fill: black; font-weight: bold;">Drama</text><text x="196.25" y="555.28" text-anchor="middle" alignment-baseline="middle" style="font-family: Arial, sans-serif; font-size: 10px; fill: black; font-weight: bold;">Horror</text><text x="294.375" y="364.68" text-anchor="middle" alignment-baseline="middle" style="font-family: Arial, sans-serif; font-size: 10px; fill: black; font-weight: bold;">Sci-fi</text><text x="196.25" y="415.2" text-anchor="middle" alignment-baseline="middle" style="font-family: Arial, sans-serif; font-size: 10px; fill: black; font-weight: bold;">Comedy</text><text x="392.5" y="211.96" text-anchor="middle" alignment-baseline="middle" style="font-family: Arial, sans-serif; font-size: 10px; fill: black; font-weight: bold;">Romance</text><text x="490.625" y="517.8000000000001" text-anchor="middle" alignment-baseline="middle" style="font-family: Arial, sans-serif; font-size: 10px; fill: black; font-weight: bold;">Supernatural</text><text x="98.125" y="392.84" text-anchor="middle" alignment-baseline="middle" style="font-family: Arial, sans-serif; font-size: 10px; fill: black; font-weight: bold;">Slice of life</text><text x="98.125" y="522.4" text-anchor="middle" alignment-baseline="middle" style="font-family: Arial, sans-serif; font-size: 10px; fill: black; font-weight: bold;">Action</text><text x="785" y="432.2" text-anchor="end" alignment-baseline="middle" style="font-family: Arial, sans-serif; font-size: 10px; fill: black; font-weight: bold;">Heart-warming</text><text x="785" y="496.11999999999995" text-anchor="end" alignment-baseline="middle" style="font-family: Arial, sans-serif; font-size: 10px; fill: black; font-weight: bold;">Mystery</text><text x="294.375" y="424.56" text-anchor="middle" alignment-baseline="middle" style="font-family: Arial, sans-serif; font-size: 10px; fill: black; font-weight: bold;">Superhero</text></g></g><text x="4" y="4" style="font-family: Arial, sans-serif; font-size: 12px; fill: black; font-weight: bold; dominant-baseline: hanging;"/></g></g></svg>