<svg xmlns="http://www.w3.org/2000/svg" width="805" height="600"><rect width="805" height="600" x="0" y="0" fill="#FFFFFF" id="background"/><g transform="translate(10,10)" id="visualization"><g><rect x="780" y="7.5" height="26.25" width="5" fill="black"><title>6: 5</title></rect><rect x="780" y="38.75" height="31.5" width="5" fill="black"><title>6.5: 6</title></rect><rect x="780" y="75.25" height="84" width="5" fill="black"><title>7: 16</title></rect><rect x="780" y="164.25" height="47.25" width="5" fill="black"><title>7.5: 9</title></rect><rect x="780" y="216.5" height="94.5" width="5" fill="black"><title>8: 18</title></rect><rect x="780" y="316" height="63" width="5" fill="black"><title>8.5: 12</title></rect><rect x="780" y="384" height="52.5" width="5" fill="black"><title>9: 10</title></rect><rect x="780" y="441.5" height="31.5" width="5" fill="black"><title>9.5: 6</title></rect><rect x="780" y="478" height="94.5" width="5" fill="black"><title>10: 18</title></rect><rect x="0" y="0" height="15.75" width="5" fill="black"><title>Action: 3</title></rect><rect x="0" y="20.75" height="42" width="5" fill="black"><title>Comedy: 8</title></rect><rect x="0" y="67.75" height="31.5" width="5" fill="black"><title>Drama: 6</title></rect><rect x="0" y="104.25" height="115.5" width="5" fill="black"><title>Fantasy: 22</title></rect><rect x="0" y="224.75" height="26.25" width="5" fill="black"><title>Heart-warming: 5</title></rect><rect x="0" y="256" height="5.25" width="5" fill="black"><title>Horror: 1</title></rect><rect x="0" y="266.25" height="5.25" width="5" fill="black"><title>Mystery: 1</title></rect><rect x="0" y="276.5" height="173.25" width="5" fill="black"><title>Romance: 33</title></rect><rect x="0" y="454.75" height="15.75" width="5" fill="black"><title>Sci-fi: 3</title></rect><rect x="0" y="475.5" height="68.25" width="5" fill="black"><title>Slice of life: 13</title></rect><rect x="0" y="548.75" height="5.25" width="5" fill="black"><title>Superhero: 1</title></rect><rect x="0" y="559" height="21" width="5" fill="black"><title>Supernatural: 4</title></rect></g><g fill="none" stroke-opacity="1"><g style="mix-blend-mode: multiply;"><path d="M5,159.375C392.5,159.375,392.5,234.875,780,234.875" stroke="#d62728" stroke-width="26.25"/><title>Fantasy → 8: 5</title></g><g style="mix-blend-mode: multiply;"><path d="M5,196.125C392.5,196.125,392.5,412.875,780,412.875" stroke="#d62728" stroke-width="15.75"/><title>Fantasy → 9: 3</title></g><g style="mix-blend-mode: multiply;"><path d="M5,122.625C392.5,122.625,392.5,104.125,780,104.125" stroke="#d62728" stroke-width="26.25"/><title>Fantasy → 7: 5</title></g><g style="mix-blend-mode: multiply;"><path d="M5,214.5C392.5,214.5,392.5,504.25,780,504.25" stroke="#d62728" stroke-width="10.5"/><title>Fantasy → 10: 2</title></g><g style="mix-blend-mode: multiply;"><path d="M5,86.125C392.5,86.125,392.5,449.375,780,449.375" stroke="#2ca02c" stroke-width="5.25"/><title>Drama → 9.5: 1</title></g><g style="mix-blend-mode: multiply;"><path d="M5,258.625C392.5,258.625,392.5,119.875,780,119.875" stroke="#8c564b" stroke-width="5.25"/><title>Horror → 7: 1</title></g><g style="mix-blend-mode: multiply;"><path d="M5,467.875C392.5,467.875,392.5,428.625,780,428.625" stroke="#bcbd22" stroke-width="5.25"/><title>Sci-fi → 9: 1</title></g><g style="mix-blend-mode: multiply;"><path d="M5,70.375C392.5,70.375,392.5,219.125,780,219.125" stroke="#2ca02c" stroke-width="5.25"/><title>Drama → 8: 1</title></g><g style="mix-blend-mode: multiply;"><path d="M5,460C392.5,460,392.5,190.5,780,190.5" stroke="#bcbd22" stroke-width="10.5"/><title>Sci-fi → 7.5: 2</title></g><g style="mix-blend-mode: multiply;"><path d="M5,49.625C392.5,49.625,392.5,444.125,780,444.125" stroke="#ff7f0e" stroke-width="5.25"/><title>Comedy → 9.5: 1</title></g><g style="mix-blend-mode: multiply;"><path d="M5,342.125C392.5,342.125,392.5,276.875,780,276.875" stroke="#7f7f7f" stroke-width="47.25"/><title>Romance → 8: 9</title></g><g style="mix-blend-mode: multiply;"><path d="M5,569.5C392.5,569.5,392.5,373.75,780,373.75" stroke="#cccccc" stroke-width="10.5"/><title>Supernatural → 8.5: 2</title></g><g style="mix-blend-mode: multiply;"><path d="M5,431.375C392.5,431.375,392.5,543.625,780,543.625" stroke="#7f7f7f" stroke-width="36.75"/><title>Romance → 10: 7</title></g><g style="mix-blend-mode: multiply;"><path d="M5,512.25C392.5,512.25,392.5,201,780,201" stroke="#17becf" stroke-width="10.5"/><title>Slice of life → 7.5: 2</title></g><g style="mix-blend-mode: multiply;"><path d="M5,483.375C392.5,483.375,392.5,62.375,780,62.375" stroke="#17becf" stroke-width="15.75"/><title>Slice of life → 6.5: 3</title></g><g style="mix-blend-mode: multiply;"><path d="M5,541.125C392.5,541.125,392.5,564.625,780,564.625" stroke="#17becf" stroke-width="5.25"/><title>Slice of life → 10: 1</title></g><g style="mix-blend-mode: multiply;"><path d="M5,313.25C392.5,313.25,392.5,180,780,180" stroke="#7f7f7f" stroke-width="10.5"/><title>Romance → 7.5: 2</title></g><g style="mix-blend-mode: multiply;"><path d="M5,23.375C392.5,23.375,392.5,10.125,780,10.125" stroke="#ff7f0e" stroke-width="5.25"/><title>Comedy → 6: 1</title></g><g style="mix-blend-mode: multiply;"><path d="M5,13.125C392.5,13.125,392.5,386.625,780,386.625" stroke="#1f77b4" stroke-width="5.25"/><title>Action → 9: 1</title></g><g style="mix-blend-mode: multiply;"><path d="M5,57.5C392.5,57.5,392.5,483.25,780,483.25" stroke="#ff7f0e" stroke-width="10.5"/><title>Comedy → 10: 2</title></g><g style="mix-blend-mode: multiply;"><path d="M5,297.5C392.5,297.5,392.5,133,780,133" stroke="#7f7f7f" stroke-width="21"/><title>Romance → 7: 4</title></g><g style="mix-blend-mode: multiply;"><path d="M5,525.375C392.5,525.375,392.5,365.875,780,365.875" stroke="#17becf" stroke-width="5.25"/><title>Slice of life → 8.5: 1</title></g><g style="mix-blend-mode: multiply;"><path d="M5,180.375C392.5,180.375,392.5,323.875,780,323.875" stroke="#d62728" stroke-width="15.75"/><title>Fantasy → 8.5: 3</title></g><g style="mix-blend-mode: multiply;"><path d="M5,381.5C392.5,381.5,392.5,347.5,780,347.5" stroke="#7f7f7f" stroke-width="31.5"/><title>Romance → 8.5: 6</title></g><g style="mix-blend-mode: multiply;"><path d="M5,530.625C392.5,530.625,392.5,433.875,780,433.875" stroke="#17becf" stroke-width="5.25"/><title>Slice of life → 9: 1</title></g><g style="mix-blend-mode: multiply;"><path d="M5,78.25C392.5,78.25,392.5,399.75,780,399.75" stroke="#2ca02c" stroke-width="10.5"/><title>Drama → 9: 2</title></g><g style="mix-blend-mode: multiply;"><path d="M5,94C392.5,94,392.5,493.75,780,493.75" stroke="#2ca02c" stroke-width="10.5"/><title>Drama → 10: 2</title></g><g style="mix-blend-mode: multiply;"><path d="M5,245.75C392.5,245.75,392.5,514.75,780,514.75" stroke="#9467bd" stroke-width="10.5"/><title>Heart-warming → 10: 2</title></g><g style="mix-blend-mode: multiply;"><path d="M5,44.375C392.5,44.375,392.5,391.875,780,391.875" stroke="#ff7f0e" stroke-width="5.25"/><title>Comedy → 9: 1</title></g><g style="mix-blend-mode: multiply;"><path d="M5,5.25C392.5,5.25,392.5,44,780,44" stroke="#1f77b4" stroke-width="10.5"/><title>Action → 6.5: 2</title></g><g style="mix-blend-mode: multiply;"><path d="M5,284.375C392.5,284.375,392.5,51.875,780,51.875" stroke="#7f7f7f" stroke-width="5.25"/><title>Romance → 6.5: 1</title></g><g style="mix-blend-mode: multiply;"><path d="M5,33.875C392.5,33.875,392.5,83.125,780,83.125" stroke="#ff7f0e" stroke-width="15.75"/><title>Comedy → 7: 3</title></g><g style="mix-blend-mode: multiply;"><path d="M5,499.125C392.5,499.125,392.5,151.375,780,151.375" stroke="#17becf" stroke-width="15.75"/><title>Slice of life → 7: 3</title></g><g style="mix-blend-mode: multiply;"><path d="M5,577.375C392.5,577.375,392.5,569.875,780,569.875" stroke="#cccccc" stroke-width="5.25"/><title>Supernatural → 10: 1</title></g><g style="mix-blend-mode: multiply;"><path d="M5,535.875C392.5,535.875,392.5,470.375,780,470.375" stroke="#17becf" stroke-width="5.25"/><title>Slice of life → 9.5: 1</title></g><g style="mix-blend-mode: multiply;"><path d="M5,561.625C392.5,561.625,392.5,308.375,780,308.375" stroke="#cccccc" stroke-width="5.25"/><title>Supernatural → 8: 1</title></g><g style="mix-blend-mode: multiply;"><path d="M5,141C392.5,141,392.5,169.5,780,169.5" stroke="#d62728" stroke-width="10.5"/><title>Fantasy → 7.5: 2</title></g><g style="mix-blend-mode: multiply;"><path d="M5,268.875C392.5,268.875,392.5,522.625,780,522.625" stroke="#e377c2" stroke-width="5.25"/><title>Mystery → 10: 1</title></g><g style="mix-blend-mode: multiply;"><path d="M5,230C392.5,230,392.5,23.25,780,23.25" stroke="#9467bd" stroke-width="10.5"/><title>Heart-warming → 6: 2</title></g><g style="mix-blend-mode: multiply;"><path d="M5,237.875C392.5,237.875,392.5,250.625,780,250.625" stroke="#9467bd" stroke-width="5.25"/><title>Heart-warming → 8: 1</title></g><g style="mix-blend-mode: multiply;"><path d="M5,399.875C392.5,399.875,392.5,423.375,780,423.375" stroke="#7f7f7f" stroke-width="5.25"/><title>Romance → 9: 1</title></g><g style="mix-blend-mode: multiply;"><path d="M5,407.75C392.5,407.75,392.5,462.5,780,462.5" stroke="#7f7f7f" stroke-width="10.5"/><title>Romance → 9.5: 2</title></g><g style="mix-blend-mode: multiply;"><path d="M5,551.375C392.5,551.375,392.5,208.875,780,208.875" stroke="#cccccc" stroke-width="5.25"/><title>Superhero → 7.5: 1</title></g><g style="mix-blend-mode: multiply;"><path d="M5,520.125C392.5,520.125,392.5,303.125,780,303.125" stroke="#17becf" stroke-width="5.25"/><title>Slice of life → 8: 1</title></g><g style="mix-blend-mode: multiply;"><path d="M5,206.625C392.5,206.625,392.5,454.625,780,454.625" stroke="#d62728" stroke-width="5.25"/><title>Fantasy → 9.5: 1</title></g><g style="mix-blend-mode: multiply;"><path d="M5,279.125C392.5,279.125,392.5,31.125,780,31.125" stroke="#7f7f7f" stroke-width="5.25"/><title>Romance → 6: 1</title></g><g style="mix-blend-mode: multiply;"><path d="M5,106.875C392.5,106.875,392.5,15.375,780,15.375" stroke="#d62728" stroke-width="5.25"/><title>Fantasy → 6: 1</title></g></g><g><text x="776" y="20.625" text-anchor="end"><tspan alignment-baseline="middle" x="776" style="font-family: Arial, sans-serif; font-size: 10px; fill: black; font-weight: bold;">6</tspan></text><text x="776" y="54.5" text-anchor="end"><tspan alignment-baseline="middle" x="776" style="font-family: Arial, sans-serif; font-size: 10px; fill: black; font-weight: bold;">6.5</tspan></text><text x="776" y="117.25" text-anchor="end"><tspan alignment-baseline="middle" x="776" style="font-family: Arial, sans-serif; font-size: 10px; fill: black; font-weight: bold;">7</tspan></text><text x="776" y="187.875" text-anchor="end"><tspan alignment-baseline="middle" x="776" style="font-family: Arial, sans-serif; font-size: 10px; fill: black; font-weight: bold;">7.5</tspan></text><text x="776" y="263.75" text-anchor="end"><tspan alignment-baseline="middle" x="776" style="font-family: Arial, sans-serif; font-size: 10px; fill: black; font-weight: bold;">8</tspan></text><text x="776" y="347.5" text-anchor="end"><tspan alignment-baseline="middle" x="776" style="font-family: Arial, sans-serif; font-size: 10px; fill: black; font-weight: bold;">8.5</tspan></text><text x="776" y="410.25" text-anchor="end"><tspan alignment-baseline="middle" x="776" style="font-family: Arial, sans-serif; font-size: 10px; fill: black; font-weight: bold;">9</tspan></text><text x="776" y="457.25" text-anchor="end"><tspan alignment-baseline="middle" x="776" style="font-family: Arial, sans-serif; font-size: 10px; fill: black; font-weight: bold;">9.5</tspan></text><text x="776" y="525.25" text-anchor="end"><tspan alignment-baseline="middle" x="776" style="font-family: Arial, sans-serif; font-size: 10px; fill: black; font-weight: bold;">10</tspan></text><text x="9" y="7.875" text-anchor="start"><tspan alignment-baseline="middle" x="9" style="font-family: Arial, sans-serif; font-size: 10px; fill: black; font-weight: bold;">Action</tspan></text><text x="9" y="41.75" text-anchor="start"><tspan alignment-baseline="middle" x="9" style="font-family: Arial, sans-serif; font-size: 10px; fill: black; font-weight: bold;">Comedy</tspan></text><text x="9" y="83.5" text-anchor="start"><tspan alignment-baseline="middle" x="9" style="font-family: Arial, sans-serif; font-size: 10px; fill: black; font-weight: bold;">Drama</tspan></text><text x="9" y="162" text-anchor="start"><tspan alignment-baseline="middle" x="9" style="font-family: Arial, sans-serif; font-size: 10px; fill: black; font-weight: bold;">Fantasy</tspan></text><text x="9" y="237.875" text-anchor="start"><tspan alignment-baseline="middle" x="9" style="font-family: Arial, sans-serif; font-size: 10px; fill: black; font-weight: bold;">Heart-warming</tspan></text><text x="9" y="258.625" text-anchor="start"><tspan alignment-baseline="middle" x="9" style="font-family: Arial, sans-serif; font-size: 10px; fill: black; font-weight: bold;">Horror</tspan></text><text x="9" y="268.875" text-anchor="start"><tspan alignment-baseline="middle" x="9" style="font-family: Arial, sans-serif; font-size: 10px; fill: black; font-weight: bold;">Mystery</tspan></text><text x="9" y="363.125" text-anchor="start"><tspan alignment-baseline="middle" x="9" style="font-family: Arial, sans-serif; font-size: 10px; fill: black; font-weight: bold;">Romance</tspan></text><text x="9" y="462.625" text-anchor="start"><tspan alignment-baseline="middle" x="9" style="font-family: Arial, sans-serif; font-size: 10px; fill: black; font-weight: bold;">Sci-fi</tspan></text><text x="9" y="509.625" text-anchor="start"><tspan alignment-baseline="middle" x="9" style="font-family: Arial, sans-serif; font-size: 10px; fill: black; font-weight: bold;">Slice of life</tspan></text><text x="9" y="551.375" text-anchor="start"><tspan alignment-baseline="middle" x="9" style="font-family: Arial, sans-serif; font-size: 10px; fill: black; font-weight: bold;">Superhero</tspan></text><text x="9" y="569.5" text-anchor="start"><tspan alignment-baseline="middle" x="9" style="font-family: Arial, sans-serif; font-size: 10px; fill: black; font-weight: bold;">Supernatural</tspan></text></g><g><text x="782.5" y="3.5" text-anchor="middle" style="font-family: Arial, sans-serif; font-size: 12px; fill: rgb(123, 123, 123); font-weight: bold;">PersonalRate</text><text x="2.5" y="-4" text-anchor="middle" style="font-family: Arial, sans-serif; font-size: 12px; fill: rgb(123, 123, 123); font-weight: bold;">Genre</text></g></g></svg>